<?xml version="1.0" standalone="no"?><!DOCTYPE svg PUBLIC "-//W3C//DTD SVG 1.1//EN" "http://www.w3.org/Graphics/SVG/1.1/DTD/svg11.dtd"><svg t="1676957963212" class="icon" viewBox="0 0 1024 1024" version="1.1" xmlns="http://www.w3.org/2000/svg" p-id="2746" xmlns:xlink="http://www.w3.org/1999/xlink" width="200" height="200"><path d="M308.681143 929.462857c-3.693714-0.256-7.387429-0.457143-11.062857-0.786286-20.662857-1.938286-39.625143-8.685714-56.448-20.845714-29.019429-21.028571-47.579429-48.987429-54.966857-84.150857a149.010286 149.010286 0 0 1-2.688-40.009143 178.413714 178.413714 0 0 1 9.106285-46.098286c8.027429-23.917714 20.114286-45.622857 35.419429-65.627428A273.334857 273.334857 0 0 1 266.971429 630.857143a335.250286 335.250286 0 0 0 37.138285-37.979429c14.409143-17.097143 27.428571-35.218286 40.32-53.467428 11.373714-16.128 22.564571-32.365714 34.633143-47.945143a310.107429 310.107429 0 0 1 29.348572-33.462857c13.348571-12.928 28.086857-23.862857 45.458285-30.976a112.658286 112.658286 0 0 1 40.667429-8.448 180.205714 180.205714 0 0 1 47.158857 4.992 135.643429 135.643429 0 0 1 61.933714 34.139428c12.105143 11.52 22.345143 24.576 31.853715 38.217143 10.112 14.482286 19.382857 29.494857 28.946285 44.324572 10.788571 16.694857 21.942857 33.133714 34.377143 48.676571a335.085714 335.085714 0 0 0 40.996572 42.861714 288.731429 288.731429 0 0 1 47.744 53.193143 222.72 222.72 0 0 1 27.757714 54.473143 171.885714 171.885714 0 0 1 9.216 46.738286c1.28 24.356571-2.925714 47.652571-13.988572 69.558857-10.24 20.297143-25.051429 36.626286-43.629714 49.554286-13.677714 9.526857-28.434286 16.768-44.672 20.790857a118.674286 118.674286 0 0 1-17.499428 3.053714c-0.822857 0.073143-1.609143 0.219429-2.413715 0.365714-0.768 0.420571-1.609143 0.091429-2.432 0.182857-0.676571 0.109714-1.371429-0.182857-2.011428 0.219429h-15.140572c-0.603429-0.420571-1.28-0.128-1.92-0.201143h-3.2c-12.909714-0.420571-25.435429-3.108571-37.942857-6.016-21.156571-4.937143-41.910857-11.428571-62.976-16.786286a391.04 391.04 0 0 0-51.748571-9.837714 245.193143 245.193143 0 0 0-36.425143-1.133714c-9.691429 0.329143-19.346286 1.828571-28.891429 3.602286-18.834286 3.547429-37.284571 8.594286-55.753143 13.641142-19.529143 5.376-39.058286 10.697143-59.062857 13.970286-8.137143 1.316571-16.274286 2.450286-24.557714 2.377143-1.700571-0.036571-3.382857 0.219429-5.101714 0.182857-2.194286-0.128-4.333714 0.256-6.491429-0.237714z m373.211428-837.668571c27.209143 3.273143 48.018286 17.115429 63.908572 38.930285 10.88 14.957714 17.737143 31.744 21.979428 49.682286a179.2 179.2 0 0 1 4.48 46.994286 204.891429 204.891429 0 0 1-20.48 83.126857 172.434286 172.434286 0 0 1-34.486857 48.786286c-12.854857 12.580571-27.392 22.637714-44.361143 28.909714-11.922286 4.388571-24.173714 6.582857-36.864 5.814857-21.979429-1.261714-40.649143-10.002286-56.32-25.252571-13.385143-13.019429-22.491429-28.781714-28.8-46.208a163.291429 163.291429 0 0 1-8.594285-37.613715 182.747429 182.747429 0 0 1-1.097143-26.441142c0.64-20.809143 4.388571-41.069714 11.154286-60.745143 7.168-20.955429 17.353143-40.265143 31.250285-57.545143 11.702857-14.518857 25.362286-26.806857 41.746286-35.876572a102.948571 102.948571 0 0 1 38.619429-12.544c0.420571-0.237714 0.877714-0.128 1.298285-0.164571h1.298286c0.64-0.073143 1.298286 0.219429 1.865143-0.219429h8.923428c0.566857 0.457143 1.225143 0.146286 1.846858 0.219429h1.316571c0.420571 0 0.877714-0.091429 1.316571 0.146286zM55.68 413.257143c0.420571-8.301714 1.92-16.457143 4.096-24.484572 4.242286-15.597714 11.154286-29.805714 21.942857-41.965714a79.177143 79.177143 0 0 1 44.763429-25.929143c14.482286-2.852571 28.781714-1.645714 42.825143 2.706286 16.164571 4.973714 30.445714 13.458286 43.154285 24.502857 19.712 17.097143 33.865143 38.144 43.648 62.208 5.12 12.617143 8.667429 25.673143 10.624 39.131429 0.950857 6.528 1.408 13.092571 1.554286 19.712a137.856 137.856 0 0 1-4.132571 36.992c-4.150857 16.182857-11.136 30.902857-22.253715 43.52a79.030857 79.030857 0 0 1-47.762285 26.569143c-14.006857 2.267429-27.776 0.731429-41.234286-3.620572-18.102857-5.869714-33.645714-15.963429-47.323429-29.037714a158.354286 158.354286 0 0 1-32.182857-43.922286 169.142857 169.142857 0 0 1-16.384-50.962286c-0.457143-3.163429-0.841143-6.326857-1.28-9.472-0.329143-1.444571-0.182857-2.925714-0.548571-4.352-0.164571-0.603429-0.073143-1.170286-0.091429-1.792-0.109714-0.749714 0.237714-1.572571-0.237714-2.322285v-11.593143c0.731429-1.060571 0.365714-2.230857 0.438857-3.364572 0.073143-0.841143-0.146286-1.737143 0.384-2.505142z m191.140571-185.746286c0.091429-23.003429 3.364571-43.721143 11.062858-63.689143 5.796571-15.085714 13.769143-28.873143 24.868571-40.740571 11.940571-12.836571 26.130286-22.016 43.245714-26.349714 17.115429-4.352 33.938286-3.108571 50.468572 2.870857 14.573714 5.302857 27.282286 13.622857 38.582857 24.137143 18.011429 16.749714 30.902857 36.992 40.100571 59.684571 5.851429 14.409143 9.874286 29.330286 12.16 44.708571 1.298286 8.704 2.048 17.499429 2.230857 26.331429a181.888 181.888 0 0 1-2.340571 33.225143c-3.821714 22.966857-11.611429 44.361143-25.508571 63.268571a97.28 97.28 0 0 1-32.018286 28.434286 81.737143 81.737143 0 0 1-46.116572 9.801143c-14.738286-1.115429-28.342857-5.942857-41.014857-13.458286-16.530286-9.782857-29.915429-22.985143-41.069714-38.528-13.202286-18.468571-22.308571-38.875429-28.050286-60.8a202.569143 202.569143 0 0 1-6.070857-36.571428 112.237714 112.237714 0 0 1-0.530286-12.324572z m722.285715 199.222857v2.669715c-1.005714 22.180571-6.948571 43.044571-16.512 62.939428a167.277714 167.277714 0 0 1-29.074286 42.404572c-15.268571 16.182857-32.987429 28.818286-54.070857 36.388571-12.617143 4.553143-25.636571 6.784-39.076572 6.034286a80.457143 80.457143 0 0 1-51.730285-21.833143c-12.032-11.190857-19.949714-24.941714-24.96-40.411429a124.928 124.928 0 0 1-5.851429-42.752c0.987429-32.036571 11.099429-61.147429 28.653714-87.789714a157.494857 157.494857 0 0 1 20.333715-24.978286c15.670857-15.616 33.590857-27.611429 54.820571-34.432a96.493714 96.493714 0 0 1 37.028572-4.608 80.274286 80.274286 0 0 1 50.267428 22.125715c12.726857 12.013714 20.772571 26.843429 25.618286 43.52 2.688 9.197714 4.260571 18.614857 4.571428 28.214857v2.688a166.692571 166.692571 0 0 0 0 9.819428z" p-id="2747" fill="#8992c8"></path></svg>